<svg width="186" height="164" viewBox="0 0 186 164" fill="none" xmlns="http://www.w3.org/2000/svg">
<path d="M46.5799 122.81C46.2899 121.59 45.1899 117.7 41.4899 115.01C41.2699 114.85 41.0499 114.72 40.8199 114.58V118.58C40.8199 129.5 48.5699 138.6 58.8699 140.7C52.1499 133.89 48.3299 126.7 46.5799 122.82V122.81Z" fill="#B758FF" style="fill:#B758FF;fill:color(display-p3 0.7166 0.3461 1.0000);fill-opacity:1;"/>
<path d="M53.5799 96.59C62.5799 102.25 66.5999 110.07 67.9999 113.17C69.8099 117.19 75.2199 127.02 86.3699 131.43C89.9399 132.84 98.2999 136.15 106.16 132.32C111.32 129.8 116.63 124.12 116.78 118.13C116.86 115.03 115.61 110.13 109.22 104.38C103.92 99.61 98.41 98.66 91.4399 97.46C82.7999 95.97 72.0499 94.12 63.5299 83.65C61.0299 80.58 53.0799 69.45 55.2899 54.98C57.1999 42.51 65.5799 34.43 72.4899 29.76C71.4399 27.68 70.4899 25.45 69.6499 23.08H63.3899C50.9199 23.08 40.8199 33.19 40.8199 45.65V91.53C44.5199 92.27 49.0099 93.7299 53.5799 96.6V96.59Z" fill="#B758FF" style="fill:#B758FF;fill:color(display-p3 0.7166 0.3461 1.0000);fill-opacity:1;"/>
<path d="M93.47 34.2299C96.47 36.1099 99.38 36.9399 102.74 37.8899C107.61 39.2799 113.14 40.8499 118.9 45.7799C120.78 47.3899 122.49 49.1999 124.02 51.1899C125 50.0999 126.1 49.0199 127.33 47.9899C134.14 42.2599 141.59 40.7499 145.82 40.3899C143.45 30.4599 134.53 23.0699 123.87 23.0699H84.15C86.58 28.1299 89.7 31.8699 93.46 34.2299H93.47Z" fill="#B758FF" style="fill:#B758FF;fill:color(display-p3 0.7166 0.3461 1.0000);fill-opacity:1;"/>
<path d="M135.97 58.26C132.58 61.11 130.9 64.5 130.09 66.84L123.9 84.68L117.45 66.93C115.79 62.37 113.35 58.69 110.17 55.97C106.64 52.94 103.3 52 99.07 50.79C96.05 49.93 92.72 48.97 89.16 47.17C86.34 48.54 79.43 52.48 78.51 58.52C77.71 63.77 81.59 68.61 81.75 68.81C84.59 72.3 88.19 73.05 95.43 74.3C103.96 75.77 114.58 77.6 124.93 86.91C137.96 98.65 140.45 110.68 140.25 118.71C140.05 126.62 137.28 133.46 133.32 139.07C141.07 135.49 146.45 127.66 146.45 118.57V53.81C143.86 54.1 139.74 55.09 135.97 58.26ZM100.78 64.91C99.81 64.91 98.75 64.74 97.65 64.3C94.05 62.85 92.84 59.5 92.64 58.84L96.04 57.78C96.16 58.17 96.87 60.14 98.99 61C101.38 61.96 103.54 60.61 103.63 60.55L105.54 63.55C105.09 63.84 103.24 64.91 100.79 64.91H100.78Z" fill="#B758FF" style="fill:#B758FF;fill:color(display-p3 0.7166 0.3461 1.0000);fill-opacity:1;"/>
</svg>
