<svg width="271" height="164" viewBox="0 0 271 164" fill="none" xmlns="http://www.w3.org/2000/svg">
<path d="M55.09 66.86C54.43 66.86 53.71 66.75 52.96 66.44C50.51 65.45 49.69 63.17 49.55 62.73L51.8601 62.01C51.9401 62.27 52.43 63.62 53.87 64.2C55.5 64.86 56.97 63.94 57.03 63.9L58.3301 65.94C58.0201 66.14 56.77 66.86 55.1 66.86H55.09Z" fill="#B758FF" style="fill:#B758FF;fill:color(display-p3 0.7166 0.3461 1.0000);fill-opacity:1;"/>
<path d="M70.83 80.3201L66.44 68.2301C65.31 65.1301 63.65 62.6201 61.49 60.7701C59.09 58.7101 56.81 58.0601 53.93 57.2501C51.34 56.5101 48.41 55.6801 45.26 53.7101C39.77 50.2701 35.73 44.4801 33.27 36.5001L42 33.8101C43.79 39.6301 46.52 43.7201 50.11 45.9701C52.15 47.2501 54.13 47.8101 56.42 48.4601C59.74 49.4001 63.5 50.4701 67.42 53.8301C68.7 54.9301 69.87 56.1601 70.91 57.5101C71.58 56.7701 72.32 56.0301 73.16 55.3301C78.06 51.2101 83.45 50.2901 86.22 50.1201L86.81 59.2401C85.15 59.3501 81.94 59.8901 79.04 62.3301C76.73 64.2701 75.59 66.5801 75.04 68.1701L70.83 80.3201Z" fill="#B758FF" style="fill:#B758FF;fill:color(display-p3 0.7166 0.3461 1.0000);fill-opacity:1;"/>
<path d="M95.7601 66.2401C98.0501 60.8001 101.28 56.0801 105.45 52.0701C109.62 48.0701 114.47 44.9801 119.99 42.8101C125.51 40.6401 131.5 39.5601 137.96 39.5601C144.42 39.5601 150.51 40.6401 155.99 42.8101C161.47 44.9801 166.23 48.0701 170.28 52.0701C174.33 56.0801 177.47 60.8001 179.72 66.2401C181.97 71.6801 183.09 77.6701 183.09 84.2101C183.09 90.7501 181.99 96.6601 179.78 102.18C177.57 107.7 174.44 112.5 170.4 116.59C166.35 120.68 161.59 123.85 156.11 126.1C150.63 128.35 144.58 129.47 137.96 129.47C131.34 129.47 125.37 128.35 119.81 126.1C114.25 123.85 109.4 120.68 105.28 116.59C101.15 112.5 97.9601 107.7 95.7101 102.18C93.4601 96.6601 92.3401 90.6701 92.3401 84.2101C92.3401 77.7501 93.4801 71.6801 95.7701 66.2401H95.7601ZM114.59 99.5401C117.09 103.96 120.46 107.39 124.71 109.85C128.96 112.3 133.7 113.53 138.94 113.53C144.18 113.53 148.95 112.37 153.04 110.04C157.13 107.71 160.32 104.46 162.61 100.29C164.9 96.1201 166.04 91.3001 166.04 85.8201C166.04 80.3401 164.89 75.2301 162.61 70.7301C160.32 66.2301 157.07 62.6301 152.86 59.9301C148.65 57.2301 143.68 55.8801 137.96 55.8801C132.64 55.8801 127.96 57.1101 123.92 59.5601C119.87 62.0101 116.68 65.3601 114.35 69.6201C112.02 73.8801 110.86 78.7401 110.86 84.2101C110.86 90.0201 112.1 95.1301 114.6 99.5401H114.59ZM151.57 90.3401L191.43 128.24H171.93L132.56 90.3401H151.57Z" fill="#B758FF" style="fill:#B758FF;fill:color(display-p3 0.7166 0.3461 1.0000);fill-opacity:1;"/>
<path d="M217.92 41.28V111.81H252.14V127.14H200.38V41.28H217.92Z" fill="#B758FF" style="fill:#B758FF;fill:color(display-p3 0.7166 0.3461 1.0000);fill-opacity:1;"/>
<path d="M53.3099 129.96C46.8699 129.96 41.6699 127.9 39.3899 127C26.3499 121.84 20.2199 110.78 18.1799 106.26L32.7599 99.7C33.9899 102.44 37.6799 109.13 45.2699 112.13C47.6999 113.09 53.3899 115.34 58.7399 112.74C62.2599 111.03 65.8699 107.16 65.9699 103.08C66.0199 100.97 65.1699 97.63 60.8199 93.72C57.2099 90.47 53.4599 89.82 48.7199 89.01C42.8399 88 35.5199 86.73 29.7199 79.61C28.0199 77.52 22.5999 69.94 24.1099 60.09C26.2699 45.95 40.6599 40.09 42.2899 39.47L47.9799 54.41C47.9099 54.44 40.7099 57.35 39.9199 62.5C39.3699 66.07 42.0099 69.37 42.1299 69.51C44.0599 71.88 46.5199 72.4 51.4399 73.25C57.2499 74.25 64.4799 75.5 71.5199 81.84C80.3899 89.83 82.0899 98.02 81.9499 103.49C81.6599 115.25 73.0299 123.57 65.7399 127.12C61.3899 129.24 57.1299 129.96 53.2999 129.96H53.3099Z" fill="#B758FF" style="fill:#B758FF;fill:color(display-p3 0.7166 0.3461 1.0000);fill-opacity:1;"/>
</svg>
