<svg width="186" height="164" viewBox="0 0 186 164" fill="none" xmlns="http://www.w3.org/2000/svg">
<g clip-path="url(#clip0_48_553)">
<path d="M90.86 159.43C79.37 159.43 68.16 155.35 59.97 150.27C48.61 143.22 44.03 134.59 40.35 127.65C37.8 122.84 35.95 119.36 32.11 116.28C23.42 109.32 8.63996 108.22 -11.83 113.01L-23.52 118.28L-33.79 95.49L-21.01 89.73C-20.3 89.41 -19.56 89.16 -18.81 88.98C10.15 81.98 32.54 84.6 47.74 96.77C55.61 103.07 59.4 110.2 62.44 115.93C65.51 121.72 67.54 125.54 73.16 129.02C73.32 129.12 89.56 139.03 100.25 131.81C107.63 126.82 111.04 115.01 107.4 107.03C103.49 98.46 91.66 95.7 91.54 95.68C88.86 95.08 87.2 95.22 84.67 95.45C80.62 95.81 75.07 96.3 67.76 93.18C56.52 88.37 47.68 77.94 44.71 65.98C41.2 51.86 46.1 36.77 58.5 23.48C84.06 -3.92997 127.46 5.49003 135.9 7.66003C165 15.13 182.03 35.01 189.3 43.5L189.45 43.67C196.68 52.11 202.74 61.55 207.49 71.72L184.83 82.28C181.05 74.16 176.21 66.64 170.47 59.93L170.32 59.76C164.1 52.5 151.16 37.38 129.69 31.87C128.21 31.49 93.33 22.79 76.78 40.53C73.78 43.75 67.01 52.07 68.97 59.95C70.04 64.27 73.59 68.48 77.6 70.19C79.08 70.82 79.59 70.8 82.45 70.54C85.86 70.24 90.54 69.82 97.03 71.28C101.04 72.18 121.47 77.65 130.13 96.65C138.8 115.67 131.67 140.73 114.24 152.51C106.92 157.46 98.82 159.42 90.86 159.42V159.43Z" fill="#B758FF" style="fill:#B758FF;fill:color(display-p3 0.7166 0.3461 1.0000);fill-opacity:1;"/>
</g>
<defs>
<clipPath id="clip0_48_553">
<rect width="185.76" height="163.77" fill="white" style="fill:white;fill-opacity:1;"/>
</clipPath>
</defs>
</svg>
