<svg width="186" height="164" viewBox="0 0 186 164" fill="none" xmlns="http://www.w3.org/2000/svg">
<path d="M130.31 85.99C119.97 76.68 109.34 74.85 100.81 73.38C93.5701 72.13 89.9701 71.38 87.1301 67.89C86.9601 67.69 83.0801 62.84 83.8901 57.6C85.0501 50.03 95.6301 45.75 95.7301 45.71L95.7001 45.64C101.95 42.47 110.57 38.91 121.26 36.7C133.94 34.08 144.84 34.33 152.46 35.1C152.16 28.2 151.86 21.3 151.56 14.4C143.7 13.22 132.74 12.43 119.88 14.16C105.65 16.08 94.3901 20.38 86.8101 23.97C86.8101 23.97 86.8101 23.98 86.8101 23.99C82.7101 25.66 63.6701 34.42 60.6701 54.05C58.4501 68.52 66.4101 79.64 68.9101 82.72C77.4301 93.19 88.1801 95.04 96.8201 96.53C103.79 97.73 109.29 98.68 114.6 103.45C120.99 109.2 122.24 114.1 122.16 117.2C122.01 123.19 116.7 128.87 111.54 131.39C103.68 135.22 95.3201 131.91 91.7501 130.5C80.6001 126.09 75.1901 116.26 73.3801 112.24C71.9801 109.14 67.9601 101.32 58.9601 95.66C50.6101 90.41 42.5101 89.87 39.0701 89.84C37.1501 97.48 35.2301 105.12 33.3101 112.76C33.7601 112.57 40.9001 109.75 46.8701 114.08C50.5801 116.77 51.6701 120.66 51.9601 121.88C54.9401 128.51 63.9601 144.76 83.1101 152.34C86.4601 153.66 94.0901 156.68 103.55 156.68C109.17 156.68 115.43 155.62 121.82 152.5C132.53 147.28 145.2 135.05 145.63 117.79C145.83 109.76 143.34 97.73 130.31 85.99Z" fill="#B758FF" style="fill:#B758FF;fill:color(display-p3 0.7166 0.3461 1.0000);fill-opacity:1;"/>
</svg>
